<svg xmlns="http://www.w3.org/2000/svg" width="current" height="current" viewBox="0 0 20 20" fill="none">
  <path d="M15.6775 18.3137C15.7805 18.4092 15.8611 18.5214 15.9145 18.6441C15.968 18.7667 15.9933 18.8974 15.9891 19.0286C15.9848 19.1598 15.9511 19.289 15.8898 19.4089C15.8285 19.5287 15.7409 19.6367 15.6318 19.7269C15.5228 19.8171 15.3946 19.8876 15.2545 19.9344C15.1143 19.9811 14.9651 20.0033 14.8151 19.9996C14.6652 19.9959 14.5176 19.9664 14.3807 19.9127C14.2438 19.8591 14.1204 19.7823 14.0174 19.6869L4.3121 10.6922C4.11168 10.5067 4 10.261 4 10.0056C4 9.75025 4.11168 9.50458 4.3121 9.31902L14.0174 0.323299C14.1197 0.225796 14.2431 0.147058 14.3805 0.091667C14.5179 0.0362757 14.6665 0.00533092 14.8177 0.000629322C14.9688 -0.00407228 15.1196 0.0175666 15.2611 0.0642833C15.4026 0.111002 15.5321 0.181869 15.6421 0.27277C15.7521 0.363672 15.8403 0.472795 15.9017 0.593801C15.9631 0.714806 15.9964 0.845284 15.9997 0.977652C16.003 1.11002 15.9762 1.24164 15.9209 1.36487C15.8656 1.48811 15.7829 1.60049 15.6775 1.69549L6.71215 10.0056L15.6775 18.3137Z" fill="current"/>
</svg>