<svg xmlns="http://www.w3.org/2000/svg" width="current" height="current" viewBox="0 0 18 18" fill="none">
  <path d="M0.545254 0.56127C0.78143 0.324962 1.10171 0.192211 1.43566 0.192211C1.76962 0.192211 2.0899 0.324962 2.32607 0.56127L8.99217 7.23312L15.6583 0.56127C15.7744 0.440879 15.9134 0.344851 16.0671 0.278789C16.2207 0.212727 16.386 0.177955 16.5532 0.1765C16.7204 0.175046 16.8863 0.206939 17.0411 0.270318C17.1958 0.333697 17.3364 0.427294 17.4547 0.545646C17.5729 0.663998 17.6665 0.804736 17.7298 0.959647C17.7931 1.11456 17.825 1.28054 17.8235 1.44791C17.8221 1.61528 17.7873 1.78068 17.7213 1.93447C17.6553 2.08826 17.5594 2.22735 17.4391 2.34362L10.773 9.01547L17.4391 15.6873C17.6685 15.9251 17.7954 16.2435 17.7926 16.574C17.7897 16.9045 17.6573 17.2206 17.4237 17.4543C17.1902 17.688 16.8744 17.8206 16.5441 17.8235C16.2139 17.8263 15.8958 17.6993 15.6583 17.4697L8.99217 10.7978L2.32607 17.4697C2.08854 17.6993 1.77041 17.8263 1.4402 17.8235C1.10998 17.8206 0.794102 17.688 0.560596 17.4543C0.327089 17.2206 0.194638 16.9045 0.191768 16.574C0.188899 16.2435 0.315841 15.9251 0.545254 15.6873L7.21135 9.01547L0.545254 2.34362C0.30915 2.10724 0.176514 1.78669 0.176514 1.45245C0.176514 1.11821 0.30915 0.797649 0.545254 0.56127Z" fill="current"/>
</svg>